<?xml version="1.0" encoding="UTF-8"?>
<svg width="90" height="108.396" xmlns="http://www.w3.org/2000/svg" xmlns:svg="http://www.w3.org/2000/svg">
 <g>
  <title>Layer 1</title>
  <rect x="0.391" y="9.361" fill="#B1B3B6" width="2.121" height="90.678" id="svg_1"/>
  <g id="svg_2">
   <g id="svg_3">
    <g id="svg_4">
     <path d="m25.725,20.906l0.396,0c0.831999,0 1.014999,-0.316 1.014999,-1.181l0,-2.625l-3.190001,-5.717c-0.646999,-1.162001 -0.862,-1.312 -1.679998,-1.312l-0.147001,0l0,-0.498c0.716,0.017 1.411001,0.05 2.09399,0.05c0.69701,0 1.414,-0.033 2.110001,-0.05l0,0.499l-0.299,0c-0.351011,0 -0.614,0.118 -0.614,0.531c0,0.234 0.197001,0.682 0.365,0.981l2.457001,4.436001l2.296,-4.387c0.131001,-0.25 0.448,-0.881001 0.448,-1.179c0,-0.283001 -0.201,-0.383 -0.649,-0.383l-0.31299,0l0,-0.498c0.681,0.017 1.127001,0.05 1.642,0.05c0.54999,0 1.114,-0.033 1.644991,-0.05l0,0.499l-0.412991,0c-0.682011,0 -0.830002,0.215 -1.34399,1.18l-2.94401,5.500001l0,2.973999c0,0.981001 0.365999,1.181 1.015999,1.181l0.332001,0l-0.00099,0.5c-0.699011,-0.017 -1.412001,-0.049999 -2.11101,-0.049999c-0.729,0 -1.494001,0.032999 -2.108,0.049999l0,-0.500999l-0.003,0z" id="svg_5"/>
     <path d="m42.105999,9.357c3.30899,0 6.198002,2.674999 6.198002,6.131c0,2.924001 -2.259991,6.132001 -6.248001,6.132001c-3.59,0 -6.179989,-2.709002 -6.179989,-5.999001c0.000988,-3.705 2.959,-6.264 6.23,-6.264l-0.000011,0zm-0.049,0.698c-2.322998,0 -4.519001,1.429 -4.519001,5.285c0,2.690001 1.761993,5.648001 4.619003,5.648001c3.07399,0 4.485989,-2.261002 4.485989,-5.316001c0.000988,-2.676 -1.674999,-5.617 -4.585999,-5.617l0.000008,0z" id="svg_6"/>
     <path d="m52.26199,20.906l0.298,0c0.764999,0 1.097992,-0.283001 1.097992,-1.362l0,-8.109c0,-1.081 -0.332993,-1.363001 -1.097992,-1.363001l-0.298,0l0,-0.499c0.580002,0.017 1.377991,0.05 2.125,0.05c1.112,0 1.912991,-0.05 2.640991,-0.05c2.941998,0 3.47501,2.31 3.47501,3.075c0,2.176001 -1.526001,2.84 -2.35899,3.106l2.225998,3.688c0.914001,1.497 1.179993,1.596001 2.52499,1.679001l0,0.348999c-0.313,0 -0.612,0.017 -0.929001,0.017c-1.462997,0 -2.143997,-0.184 -3.022987,-1.628l-1.944,-3.174999c-0.382999,-0.614 -0.598999,-0.646999 -1.876999,-0.681l0,3.142c0,1.577999 0.281998,1.761 0.945999,1.761l0.481991,0l0,0.5c-0.731991,-0.017 -1.429001,-0.049999 -2.162003,-0.049999c-0.74699,0 -1.544998,0.032999 -2.125,0.049999l0,-0.5l-0.000988,0l-0.000011,0zm2.858002,-5.651c0.281998,0.099999 0.695999,0.118 1.128998,0.118c1.493999,0 2.727013,-0.682 2.727013,-2.411c0,-0.731 -0.498993,-2.757 -2.811001,-2.757c-0.399002,0 -0.714001,0.032001 -1.045002,0.065001l0,4.985l-0.000008,0z" id="svg_7"/>
     <path d="m66.501999,20.906l0.298004,0c0.764999,0 1.097,-0.283001 1.097,-1.362l0,-8.109c0,-1.081 -0.332001,-1.363001 -1.097,-1.363001l-0.298004,0l0,-0.499c0.580994,0.017 1.376015,0.05 2.126015,0.05c0.731987,0 1.426987,-0.033 2.160995,-0.05l0,0.499l-0.483002,0c-0.664986,0 -0.945007,0.184 -0.945007,1.762l0,3.905001l3.639008,-4.055c0.164993,-0.183 0.797005,-0.847 0.797005,-1.18c0,-0.297999 -0.231995,-0.432 -0.550003,-0.432l-0.296997,0l0,-0.499c0.613998,0.017 1.312996,0.05 1.959,0.05c0.666,0 1.312996,-0.033 1.978996,-0.05l0,0.499l-0.298996,0c-0.814011,0 -1.097,0.150001 -2.077011,1.18l-3.207993,3.374001l4.289001,5.017999c0.929001,1.098001 1.411003,1.263 2.092003,1.263l0.25,0l0,0.5c-0.533005,-0.017 -1.080994,-0.049999 -1.612991,-0.049999c-0.529999,0 -1.078003,0.032999 -1.609009,0.049999c-0.082993,-0.483999 -0.133003,-0.733 -1.082001,-1.812l-3.404999,-3.905999l-0.862991,0.915l0,2.542c0,1.578001 0.279999,1.761 0.944984,1.761l0.483002,0l0,0.5c-0.733986,-0.017 -1.429001,-0.049999 -2.160995,-0.049999c-0.75,0 -1.545006,0.032999 -2.126015,0.049999l0,-0.500999l-0.001999,0z" id="svg_8"/>
    </g>
    <g id="svg_9">
     <path fill="#E31837" d="m60.952999,74.262001c-9.480999,0 -17.688,-5.860001 -17.688,-18.670002l0,-30.456999l-21.182999,0l0,55.886003l55.886002,0l0,-20.390003c-1.680016,8.126003 -7.585999,13.631001 -17.015003,13.631001z" id="svg_10"/>
     <path fill="#E31837" d="m60.952999,62.821999c5.084988,0 6.646,-4.468998 6.646,-8.838997l0,-28.848001l-13.006001,0l0,28.848001c0.000992,4.549999 1.619003,8.838997 6.360001,8.838997z" id="svg_11"/>
    </g>
    <rect x="22.083" y="92.616" fill="#E31837" width="55.886" height="0.379" id="svg_12"/>
   </g>
   <g id="svg_13">
    <path d="m25.513,88.544998c0,1.524002 -0.918001,1.907013 -1.679001,1.907013c-0.765999,0 -1.681,-0.383003 -1.681,-1.907013l0,-2.790001l0.596001,0l0,2.945c0,0.619003 0.269999,1.273003 1.084999,1.273003c0.813,0 1.084,-0.653999 1.084,-1.273003l0,-2.945l0.595001,0l0,2.790001z" id="svg_14"/>
    <path d="m29,85.754997l0.789989,0l1.84601,3.209c0.099001,0.169014 0.254,0.478004 0.313,0.634003l0.030991,0c-0.01199,-0.156998 -0.030991,-0.374001 -0.030991,-0.575996l0,-3.267014l0.595991,0l0,4.597l-0.798,0l-1.84099,-3.248001c-0.09601,-0.168999 -0.251011,-0.477997 -0.31201,-0.632996l-0.030001,0c0.013,0.154999 0.030001,0.375 0.030001,0.574997l0,3.306l-0.59399,0l0,-4.597l0,0.000008z" id="svg_15"/>
    <path d="m36.632999,85.754997l0,4.597l-0.597,0l0,-4.597l0.597,0z" id="svg_16"/>
    <path d="m41.425991,89.224998c0.062988,0.187004 0.110001,0.374001 0.153988,0.561005l0.032001,0c0.047009,-0.187004 0.090008,-0.375 0.157009,-0.561005l1.14999,-3.469002l0.612,0l-1.57201,4.597l-0.765987,0l-1.532001,-4.597l0.651989,0l1.11301,3.469002l0.000011,0z" id="svg_17"/>
    <path d="m46.556,85.754997l2.76601,0l0,0.476013l-2.173,0l0,1.499001l2.063,0l0,0.479996l-2.063,0l0,1.666l2.237,0l0,0.476006l-2.829998,0l0,-4.597l-0.000011,-0.000015z" id="svg_18"/>
    <path d="m52.653,85.754997l1.584,0c0.787991,0 1.409,0.385002 1.409,1.232002c0,0.886002 -0.606991,1.099998 -0.84,1.175003l1.098011,2.189987l-0.710011,0l-0.949009,-2.078987l-0.99699,0l0,2.078987l-0.595001,0l0,-4.597l0,0.000008zm0.595001,2.040001l0.938999,0c0.671009,0 0.865009,-0.406998 0.865009,-0.761002c0,-0.770996 -0.666,-0.801987 -0.932011,-0.801987l-0.872997,0l0,1.563004l0.001007,0l-0.000008,-0.000015z" id="svg_19"/>
    <path d="m59.310001,89.263c0.085011,0.322998 0.342999,0.709999 0.954998,0.709999c0.584,0 0.892002,-0.413002 0.892002,-0.801003c0,-0.496986 -0.31599,-0.653 -0.481991,-0.728996l-1.112,-0.517998c-0.435001,-0.200005 -0.685001,-0.531013 -0.685001,-1.007004c0,-0.898003 0.779999,-1.259003 1.439991,-1.259003c0.652008,0 1.189011,0.226013 1.408001,0.837013l-0.582001,0.195c-0.10899,-0.433998 -0.495003,-0.555 -0.826,-0.555c-0.569,0 -0.808002,0.322998 -0.808002,0.744003c0,0.452995 0.310013,0.595001 0.606003,0.722l0.827,0.364006c0.286011,0.123993 0.847,0.399994 0.847,1.194c0,0.432999 -0.264999,1.293999 -1.575993,1.293999c-1.008007,0 -1.381008,-0.634995 -1.479,-0.977005l0.575001,-0.214005l-0.000008,-0.000008z" id="svg_20"/>
    <path d="m65.692993,85.754997l0,4.597l-0.596016,0l0,-4.597l0.596016,0z" id="svg_21"/>
    <path d="m70.065987,86.269997l-1.337006,0l0,-0.514l3.268997,0l0,0.514l-1.33699,0l0,4.083l-0.595001,0l0,-4.083z" id="svg_22"/>
    <path d="m75.031013,85.754997l2.762993,0l0,0.476013l-2.168983,0l0,1.499001l2.060989,0l0,0.479996l-2.060989,0l0,1.666l2.233986,0l0,0.476006l-2.827995,0l0,-4.597l0,-0.000015zm1.470985,-1.215996l0.697998,0l-0.918983,0.922997l-0.452011,0l0.672997,-0.922997z" id="svg_23"/>
    <path d="m25.513,98.153c0,1.527 -0.918001,1.908997 -1.679001,1.908997c-0.765999,0 -1.681,-0.381996 -1.681,-1.908997l0,-2.789001l0.596001,0l0,2.945c0,0.621002 0.269999,1.273003 1.084999,1.273003c0.813,0 1.084,-0.652 1.084,-1.273003l0,-2.945l0.595001,0l0,2.789001z" id="svg_24"/>
    <path d="m28.938,95.363998l0.787991,0l1.84601,3.211998c0.098999,0.168015 0.252989,0.479004 0.312,0.632004l0.032,0c-0.013,-0.153 -0.032,-0.375 -0.032,-0.572998l0,-3.271004l0.595987,0l0,4.602013l-0.796999,0l-1.841,-3.252014c-0.097,-0.166 -0.252989,-0.478996 -0.309999,-0.633995l-0.034,0c0.013,0.153999 0.034,0.375999 0.034,0.574997l0,3.311005l-0.59399,0l0,-4.602013l0,0.000008z" id="svg_25"/>
    <path d="m36.50301,95.363998l0,4.602013l-0.59399,0l0,-4.602013l0.59399,0z" id="svg_26"/>
    <path d="m41.231991,98.833c0.063999,0.188004 0.10899,0.375 0.154999,0.563004l0.03299,0c0.042011,-0.188004 0.090012,-0.376015 0.154011,-0.563004l1.147991,-3.469002l0.615009,0l-1.569,4.602013l-0.771,0l-1.53101,-4.602013l0.652008,0l1.114002,3.469002z" id="svg_27"/>
    <path d="m46.297001,95.363998l2.766998,0l0,0.479004l-2.17099,0l0,1.496986l2.062,0l0,0.479004l-2.062,0l0,1.667l2.235001,0l0,0.478996l-2.831009,0l0,-4.600998l0,0.000008z" id="svg_28"/>
    <path d="m52.33099,95.363998l1.582989,0c0.789001,0 1.409,0.389999 1.409,1.233002c0,0.885002 -0.605988,1.100998 -0.84,1.175003l1.099003,2.192986l-0.709003,0l-0.952999,-2.079987l-0.993988,0l0,2.079987l-0.595001,0l0,-4.600998l0,0.000008zm0.595001,2.042l0.937,0c0.674999,0 0.865009,-0.408997 0.865009,-0.763c0,-0.768997 -0.665012,-0.799995 -0.930012,-0.799995l-0.87199,0l0,1.562996l-0.000008,0z" id="svg_29"/>
    <path d="m58.923,98.873001c0.082989,0.324997 0.341999,0.709999 0.954998,0.709999c0.582001,0 0.89299,-0.413002 0.89299,-0.801003c0,-0.498001 -0.316998,-0.649986 -0.487,-0.729996l-1.107998,-0.515999c-0.435001,-0.201004 -0.685001,-0.531013 -0.685001,-1.008003c0,-0.899002 0.78101,-1.260002 1.439999,-1.260002c0.654011,0 1.188004,0.227013 1.408001,0.840004l-0.582001,0.192001c-0.107998,-0.432014 -0.497997,-0.556 -0.826,-0.556c-0.570007,0 -0.807999,0.322998 -0.807999,0.743996c0,0.450005 0.311001,0.596001 0.608002,0.723999l0.826,0.361c0.281998,0.124001 0.847,0.401001 0.847,1.194c0,0.433998 -0.267014,1.293999 -1.578003,1.293999c-1.007,0 -1.382,-0.634987 -1.478001,-0.976997l0.575001,-0.210999l0.000011,0z" id="svg_30"/>
    <path d="m65.240013,95.363998l0,4.602013l-0.595001,0l0,-4.602013l0.595001,0z" id="svg_31"/>
    <path d="m69.549004,95.880997l-1.336006,0l0,-0.516998l3.271004,0l0,0.516998l-1.338989,0l0,4.085014l-0.596008,0l0,-4.085014z" id="svg_32"/>
    <path d="m75.643997,98.084999l-1.62999,-2.721001l0.713005,0l1.031998,1.802002c0.069992,0.123001 0.129997,0.258003 0.186996,0.390999l0.016014,0c0.056992,-0.132996 0.123001,-0.267998 0.192001,-0.390999l1.041,-1.802002l0.67099,0l-1.625992,2.721001l0,1.881004l-0.596008,0l0,-1.881004l-0.000015,0z" id="svg_33"/>
   </g>
  </g>
 </g>

</svg>